<svg xmlns="http://www.w3.org/2000/svg" viewBox="0 0 500 145.43"><g data-name="Camada 2"><path d="M378.4 40.6a13.08 13.08 0 00-17.54 5.84l-27.52 55.05-27.53-55a13.07 13.07 0 00-23.38 11.69l39.21 78.43a13.07 13.07 0 0023.39 0l39.21-78.43a13.07 13.07 0 00-5.84-17.58M100.75 43a13.09 13.09 0 00-18.49 0L26.14 99.16V13.07a13.07 13.07 0 00-26.14 0v117.65A13.07 13.07 0 0022.32 140l30-30 30 30a13.07 13.07 0 0018.49-18.48l-30-30 30-30a13.09 13.09 0 000-18.49m36.44-3.81a13.07 13.07 0 00-13.07 13.07v78.43a13.08 13.08 0 0026.15 0V52.29a13.08 13.08 0 00-13.08-13.07m88.24-1.64c-12.1 0-22 5-29.57 12.78a13.07 13.07 0 00-26 1.93v78.43a13.08 13.08 0 0026.15 0V89.87a26.15 26.15 0 0152.29 0v40.85a13.07 13.07 0 0026.14 0V89.87c0-28.83-20.19-52.29-49-52.29M137.25 0a13.07 13.07 0 1013.08 13.07A13.07 13.07 0 00137.25 0m308.83 119.28a27.78 27.78 0 1127.78-27.78 27.81 27.81 0 01-27.78 27.78m0-81.7A53.93 53.93 0 10500 91.5a54 54 0 00-53.92-53.92" fill="#6647b5" data-name="Camada 1"/></g></svg>