<svg width="0" height="0" class="hidden">
    <symbol xmlns="http://www.w3.org/2000/svg" fill="none" stroke="currentColor" stroke-width="2" stroke-linecap="round"
        stroke-linejoin="round" viewBox="0 0 24 24" id="chevron-down">
        <polyline points="6 9 12 15 18 9"></polyline>
    </symbol>
    <symbol xmlns="http://www.w3.org/2000/svg" fill="none" stroke="currentColor" stroke-width="2" stroke-linecap="round"
        stroke-linejoin="round" viewBox="0 0 24 24" id="trending-up">
        <polyline points="23 6 13.5 15.5 8.5 10.5 1 18"></polyline>
        <polyline points="17 6 23 6 23 12"></polyline>
    </symbol>
    <symbol xmlns="http://www.w3.org/2000/svg" fill="none" stroke="currentColor" stroke-width="2" stroke-linecap="round"
        stroke-linejoin="round" viewBox="0 0 24 24" id="arrow-up">
        <line x1="12" y1="19" x2="12" y2="5"></line>
        <polyline points="5 12 12 5 19 12"></polyline>
    </symbol>
    <symbol xmlns="http://www.w3.org/2000/svg" fill="none" stroke="currentColor" stroke-width="2" stroke-linecap="round"
        stroke-linejoin="round" viewBox="0 0 24 24" id="award">
        <circle cx="12" cy="8" r="7"></circle>
        <polyline points="8.21 13.89 7 23 12 20 17 23 15.79 13.88"></polyline>
    </symbol>
    <symbol xmlns="http://www.w3.org/2000/svg" fill="none" stroke="currentColor" stroke-width="2" stroke-linecap="round"
        stroke-linejoin="round" viewBox="0 0 24 24" id="shuffle">
        <polyline points="16 3 21 3 21 8"></polyline>
        <line x1="4" y1="20" x2="21" y2="3"></line>
        <polyline points="21 16 21 21 16 21"></polyline>
        <line x1="15" y1="15" x2="21" y2="21"></line>
        <line x1="4" y1="4" x2="9" y2="9"></line>
    </symbol>
    <symbol xmlns="http://www.w3.org/2000/svg" fill="none" stroke="currentColor" stroke-width="2" stroke-linecap="round"
        stroke-linejoin="round" viewBox="0 0 24 24" id="menu">
        <line x1="3" y1="12" x2="21" y2="12"></line>
        <line x1="3" y1="6" x2="21" y2="6"></line>
        <line x1="3" y1="18" x2="21" y2="18"></line>
    </symbol>
    <symbol xmlns="http://www.w3.org/2000/svg" fill="none" stroke="currentColor" stroke-width="2" stroke-linecap="round"
        stroke-linejoin="round" viewBox="0 0 24 24" id="chevron-right">
        <polyline points="9 18 15 12 9 6"></polyline>
    </symbol>
    <symbol xmlns="http://www.w3.org/2000/svg" fill="none" stroke="currentColor" stroke-width="2" stroke-linecap="round"
        stroke-linejoin="round" viewBox="0 0 24 24" id="list">
        <line x1="8" y1="6" x2="21" y2="6"></line>
        <line x1="8" y1="12" x2="21" y2="12"></line>
        <line x1="8" y1="18" x2="21" y2="18"></line>
        <line x1="3" y1="6" x2="3.01" y2="6"></line>
        <line x1="3" y1="12" x2="3.01" y2="12"></line>
        <line x1="3" y1="18" x2="3.01" y2="18"></line>
    </symbol>
    <symbol xmlns="http://www.w3.org/2000/svg" fill="none" stroke="currentColor" stroke-width="2" stroke-linecap="round"
        stroke-linejoin="round" viewBox="0 0 24 24" id="monitor">
        <rect x="2" y="3" width="20" height="14" rx="2" ry="2"></rect>
        <line x1="8" y1="21" x2="16" y2="21"></line>
        <line x1="12" y1="17" x2="12" y2="21"></line>
    </symbol>
    <symbol xmlns="http://www.w3.org/2000/svg" fill="none" stroke="currentColor" stroke-width="2" stroke-linecap="round"
        stroke-linejoin="round" viewBox="0 0 24 24" id="dollar-sign">
        <line x1="12" y1="1" x2="12" y2="23"></line>
        <path d="M17 5H9.5a3.5 3.5 0 0 0 0 7h5a3.5 3.5 0 0 1 0 7H6"></path>
    </symbol>
    <symbol xmlns="http://www.w3.org/2000/svg" fill="none" stroke="currentColor" stroke-width="2" stroke-linecap="round"
        stroke-linejoin="round" viewBox="0 0 24 24" id="star (1)">
        <polygon
            points="12 2 15.09 8.26 22 9.27 17 14.14 18.18 21.02 12 17.77 5.82 21.02 7 14.14 2 9.27 8.91 8.26 12 2">
        </polygon>
    </symbol>
    <symbol xmlns="http://www.w3.org/2000/svg" fill="none" stroke="currentColor" stroke-width="2" stroke-linecap="round"
        stroke-linejoin="round" viewBox="0 0 24 24" id="layers">
        <polygon points="12 2 2 7 12 12 22 7 12 2"></polygon>
        <polyline points="2 17 12 22 22 17"></polyline>
        <polyline points="2 12 12 17 22 12"></polyline>
    </symbol>
    <symbol xmlns="http://www.w3.org/2000/svg" fill="none" stroke="currentColor" stroke-width="2" stroke-linecap="round"
        stroke-linejoin="round" viewBox="0 0 24 24" id="pie-chart">
        <path d="M21.21 15.89A10 10 0 1 1 8 2.83"></path>
        <path d="M22 12A10 10 0 0 0 12 2v10z"></path>
    </symbol>
    <symbol xmlns="http://www.w3.org/2000/svg" fill="none" stroke="currentColor" stroke-width="2" stroke-linecap="round"
        stroke-linejoin="round" viewBox="0 0 24 24" id="target">
        <circle cx="12" cy="12" r="10"></circle>
        <circle cx="12" cy="12" r="6"></circle>
        <circle cx="12" cy="12" r="2"></circle>
    </symbol>
    <symbol xmlns="http://www.w3.org/2000/svg" fill="none" stroke="currentColor" stroke-width="2" stroke-linecap="round"
        stroke-linejoin="round" viewBox="0 0 24 24" id="refresh-ccw">
        <polyline points="1 4 1 10 7 10"></polyline>
        <polyline points="23 20 23 14 17 14"></polyline>
        <path d="M20.49 9A9 9 0 0 0 5.64 5.64L1 10m22 4l-4.64 4.36A9 9 0 0 1 3.51 15"></path>
    </symbol>
</svg>